<svg width="131" height="25" viewBox="0 0 131 25" fill="none" xmlns="http://www.w3.org/2000/svg">
<g id="Group 186">
<path id="Vector" d="M9.45183 5.50163L14.9316 9.28077C16.1712 10.2084 17.6838 10.6981 19.2318 10.6731C22.2611 10.6731 25 8.63832 25 8.63832L12.501 0C12.501 0 11.1385 1.50171 6.85416 4.17694C2.35699 6.97152 0 7.78503 0 7.78503L16.1926 18.9693L15.4726 19.4427L10.0744 15.7133C8.83333 14.784 7.31833 14.2942 5.76816 14.3209C2.74485 14.3209 0 16.3617 0 16.3617L12.505 25C12.505 25 13.8714 23.5003 18.1518 20.8231C22.649 18.0205 25.006 17.207 25.006 17.207L8.7318 5.96706L9.45183 5.50163Z" fill="#DF003A"/>
<path id="Vector_2" d="M41.5012 10.6889C39.1263 10.3825 37.01 10.3209 36.9563 9.45765C36.8847 8.36966 38.6191 8.26424 39.184 8.26424C40.1288 8.26424 41.6584 8.48104 42.0144 9.90319H48.0829C48.0829 7.17028 45.4972 5.00821 39.2059 4.99031C32.2224 4.97241 31.029 8.05141 31.029 9.80374C31.029 13.0498 33.5471 14.0085 39.003 14.5774C41.0298 14.7902 42.3187 14.7763 42.3187 15.7927C42.3187 16.8091 40.7772 16.9364 40.1308 16.9364C39.5341 16.9364 37.8554 16.9364 37.3064 15.2358H30.7188C31.0052 18.4182 33.0181 20.2978 40.1248 20.2779C46.8179 20.258 48.5702 17.545 48.5702 15.4685C48.5702 13.4615 47.1958 11.4168 41.5012 10.6889Z" fill="#003690"/>
<path id="Vector_3" d="M68.4113 9.09389H76.429L68.1328 16.8451V19.9341H84.9838V16.2325H76.6001L85.0097 8.49918V5.40625H68.4113V9.09389Z" fill="#003690"/>
<path id="Vector_4" d="M130.488 5.40625H125.006V19.9341H130.488V5.40625Z" fill="#003690"/>
<path id="Vector_5" d="M116.7 5.40625L110.867 10.4126V5.40625H105.379V19.9341H110.867V14.7845L116.283 19.9341H123.66L115.636 12.4872L123.923 5.40625H116.7Z" fill="#003690"/>
<path id="Vector_6" d="M61.3368 11.5006V13.788C61.3368 15.5781 60.6904 16.7596 58.2618 16.7596C55.8332 16.7596 55.1868 15.5662 55.1868 13.788V5.40625H49.9238V10.699C49.9238 11.3972 49.9378 13.7402 49.9517 15.053C49.9696 16.9207 50.431 20.489 58.2558 20.489C66.0806 20.489 66.5401 16.9207 66.56 15.053C66.5739 13.7402 66.5878 11.3972 66.5878 10.699V5.40625H61.3368V11.5006Z" fill="#003690"/>
<path id="Vector_7" d="M98.2352 11.5006V13.788C98.2352 15.5781 97.5868 16.7596 95.1582 16.7596C92.7296 16.7596 92.0911 15.5741 92.0911 13.788V5.40625H86.8262V10.699C86.8262 11.3972 86.8401 13.7402 86.854 15.053C86.8739 16.9207 87.3334 20.489 95.1582 20.489C102.983 20.489 103.444 16.9207 103.462 15.053C103.476 13.7402 103.492 11.3972 103.492 10.699V5.40625H98.2352V11.5006Z" fill="#003690"/>
</g>
</svg>
